<?xml version="1.0" encoding="utf-8"?>
<svg xmlns="http://www.w3.org/2000/svg" viewBox="0 0 500 500">
  <a style="" transform="matrix(0.745293, 0, 0, 0.736736, 6.517385, -13.072542)">
    <path d="M 554.594 153.138 L 530.841 153.138 L 536.474 179.191 L 560.999 179.191 L 554.594 153.138 Z" fill="#ed9da0" style="stroke-width: 1;"/>
    <path d="M 544.125 498.302 L 641.232 498.302 C 649.401 498.291 656.021 491.672 656.032 483.502 L 656.032 386.39 C 656.021 378.221 649.401 371.601 641.232 371.59 L 544.125 371.59 C 535.956 371.601 529.336 378.221 529.325 386.39 L 529.325 483.5 C 529.335 491.67 535.955 498.291 544.125 498.302 Z" fill="#d6d6e3" style="stroke-width: 1;"/>
    <g transform="matrix(1, 0, 0, 1, 543.380188, 185.872284)">
      <path d="M132.2,342.184a12.035,12.035,0,0,1-4.055-18L112.051,216l23.794.152,9.929,106.2A12.1,12.1,0,0,1,132.2,342.184Z" transform="translate(-94.807 -140.415)" fill="#ed9da0"/>
      <path d="M143.273,152.25s7.112-1.935,8.145,13.646c.828,12.474,13.257,88.472,9.782,105.476a10.96,10.96,0,0,1,6.2,11.922l-35.929-3.229c-4.929-6.52-4.954-13.824-2.13-15.349l-2.885-22.394-16.677-72.948,28.333-15.817,5.165-1.307Z" transform="translate(-109.775 -152.174)" fill="#f2f2f2"/>
    </g>
    <g transform="matrix(1, 0, 0, 1, 501.815186, 590.940247)">
      <path d="M177.223,582.871H158.908L150.2,512.226h27.031Z" transform="translate(-121.889 -512.226)" fill="#ed9da0"/>
      <path d="M175.962,562.336V549.919l4.815.294,19.6,1.161,4.536.279,3.468,41.584.186,2.229h-13l-.418-2.214-1.889-10.063-4.877,10.063-1.068,2.214H152.833a7.79,7.79,0,0,1-7.741-7.756c-1.455-6.8,27.217-21.489,30.871-25.375Z" transform="translate(-145.038 -490.042)" fill="#2f2e41"/>
    </g>
    <g transform="matrix(1, 0, 0, 1, 577.133179, 598.512268)">
      <path d="M139.845,563.335,119,567.061,99.574,507.033,120.5,500.62Z" transform="translate(-91.719 -500.62)" fill="#ed9da0"/>
      <path d="M111.743,555.667l-3.076-12.215,4.347-1.033L130.7,538.18l4.1-.971,13.38,39.959.717,2.142-11.545,3.57-.92-2.063-4.17-9.382-1.836,11.239-.4,2.471-36.062-3.685c-1.828.565-5.243-.644-5.243-.644s.548-4.507,0-6.685c8.043-8.587,20.742-13.639,23.023-18.465Z" transform="translate(-88.72 -488.32)" fill="#2f2e41"/>
    </g>
    <path d="M 485.69 368.12 L 485.338 364.426 L 500.524 322.791 L 565.243 335.27 C 565.243 335.27 598.599 376.361 591.181 403.558 C 589.169 410.934 584.87 497.873 586.164 500.669 C 615.976 565.057 619.244 641.769 619.244 641.769 C 619.244 641.769 611.208 637.696 595.068 641.769 C 590.857 642.832 545.853 479.38 545.853 479.38 C 545.853 479.38 547.264 488.394 549.231 502.1 C 555.308 544.442 564.854 629.681 556.373 634.095 C 549.602 637.6 542.021 639.242 534.406 638.853 C 534.406 638.853 499.406 533.683 506.822 508.959" fill="#2f2e41" style="stroke-width: 1;"/>
    <path d="M 517.48 189.218 L 534.23 169.081 L 559.43 167.721 L 573.13 188.034 L 580.722 209.447 C 589.221 230.091 591.165 252.849 586.29 274.634 L 574.628 326.755 C 574.628 326.755 572.828 332.897 577.539 333.635 C 582.25 334.373 581.681 343.426 581.681 343.426 C 581.681 343.426 592.345 357.211 581.681 370.926 C 571.017 384.641 496.373 328.226 496.373 328.226 L 495.964 263.944 C 495.964 263.944 472.205 232.033 497.792 213.757 L 517.471 189.227 L 517.48 189.218 Z" fill="#f2f2f2" style="stroke-width: 1;"/>
    <path d="M 467.15 415.406 L 564.257 415.406 C 572.426 415.395 579.046 408.776 579.057 400.606 L 579.057 303.494 C 579.046 295.325 572.426 288.705 564.257 288.694 L 467.15 288.694 C 458.981 288.705 452.361 295.325 452.35 303.494 L 452.35 400.604 C 452.36 408.774 458.98 415.395 467.15 415.406 Z" fill="#6c63ff" style="stroke-width: 1;"/>
    <g transform="matrix(1, 0, 0, 1, 478.789185, 188.409271)">
      <path d="M173.611,325.164a12.035,12.035,0,0,1,2.478-18.287l22.645-107,22.247,8.441L193.247,311.31a12.1,12.1,0,0,1-19.637,13.853Z" transform="translate(-170.501 -145.923)" fill="#ed9da0"/>
      <path d="M191.566,154.564s-6.714-3.039-10.208,12.18c-2.8,12.184-27.134,85.245-26.4,102.586a10.96,10.96,0,0,0-8.011,10.788l35.986,2.516c5.9-5.655,7.086-12.862,4.54-14.817l6.4-21.652,28.047-69.375-25.463-20.114-4.892-2.111Z" transform="translate(-143.541 -154.316)" fill="#f2f2f2"/>
    </g>
    <ellipse cx="540.458" cy="126.73" rx="31.822" ry="31.822" fill="#ed9da0" style="stroke-width: 1;"/>
    <path d="M 510.507 122.717 C 510.424 122.717 510.223 122.717 509.844 122.729 C 508.743 122.8 510.235 122.74 510.507 122.717 Z" fill="#2f2e41" style="stroke-width: 1;"/>
    <path d="M 558.469 74.245 C 556.704 74.249 554.943 74.436 553.216 74.803 C 550.119 73.19 546.681 72.344 543.189 72.335 L 542.279 72.335 C 524.732 72.335 510.507 89.29 510.507 110.204 L 516.387 110.204 L 517.337 102.487 L 518.729 110.204 L 523.629 110.204 C 522.101 116.413 521.336 122.784 521.348 129.177 L 521.348 167.722 L 530.237 167.722 L 535.384 153.441 L 534.097 167.722 L 591.236 167.722 L 595.915 154.739 L 594.745 167.722 L 601.178 167.722 L 601.178 137.457 C 601.182 102.546 582.059 74.245 558.469 74.245 Z" fill="#2f2e41" style="stroke-width: 1;"/>
  </a>
  <path d="M 33.5 102.254 L 91.394 102.254 C 96.265 102.248 100.211 98.461 100.218 93.786 L 100.218 38.219 C 100.211 33.545 96.265 29.756 91.394 29.75 L 33.5 29.75 C 28.629 29.756 24.683 33.545 24.677 38.219 L 24.677 93.784 C 24.682 98.459 28.629 102.248 33.5 102.254 Z M 91.394 31.105 C 95.488 31.105 98.807 34.29 98.807 38.219 L 98.807 93.784 C 98.807 97.713 95.488 100.899 91.394 100.899 L 50.841 100.899 C 37.169 100.899 26.087 90.263 26.087 77.142 L 26.087 38.219 C 26.087 34.29 29.406 31.104 33.5 31.104 L 91.394 31.105 Z" fill="#f2f2f2" style="stroke-width: 1;"/>
  <path d="M 33.5 102.254 L 91.394 102.254 C 96.265 102.248 100.211 98.461 100.218 93.786 L 100.218 38.219 C 100.211 33.545 96.265 29.756 91.394 29.75 L 33.5 29.75 C 28.629 29.756 24.683 33.545 24.677 38.219 L 24.677 93.784 C 24.682 98.459 28.629 102.248 33.5 102.254 Z" fill="#6c63ff" style="stroke-width: 1;"/>
  <ellipse cx="62.8" cy="10.1" rx="7.767" ry="7.454" fill="#6c63ff" style="stroke-width: 1;"/>
  <path d="M 148.916 180.857 L 206.81 180.857 C 211.68 180.851 215.627 177.063 215.634 172.389 L 215.634 116.823 C 215.627 112.149 211.68 108.361 206.81 108.355 L 148.916 108.355 C 144.046 108.361 140.099 112.149 140.092 116.823 L 140.092 172.387 C 140.099 177.062 144.045 180.851 148.916 180.857 Z M 206.81 109.708 C 210.904 109.708 214.224 112.894 214.224 116.823 L 214.224 172.386 C 214.224 176.316 210.904 179.501 206.81 179.501 C 170.743 179.501 141.503 151.44 141.502 116.823 C 141.502 112.894 144.821 109.709 148.915 109.709 L 206.81 109.709 L 206.81 109.708 Z" fill="#090814" style="stroke-width: 1;"/>
  <ellipse cx="178.217" cy="88.702" rx="7.767" ry="7.454" fill="#d6d6e3" style="stroke-width: 1;"/>
  <path d="M 16.555 248.811 L 74.45 248.811 C 79.32 248.805 83.267 245.018 83.274 240.343 L 83.274 184.776 C 83.267 180.102 79.32 176.314 74.45 176.308 L 16.555 176.308 C 11.685 176.314 7.738 180.102 7.732 184.776 L 7.732 240.342 C 7.738 245.016 11.685 248.805 16.555 248.811 Z M 74.45 177.663 C 78.544 177.663 81.863 180.847 81.863 184.776 L 81.863 240.342 C 81.863 244.271 78.544 247.456 74.45 247.456 C 38.381 247.456 9.141 219.393 9.142 184.776 C 9.142 180.847 12.461 177.661 16.555 177.661 L 74.45 177.663 Z" fill="#090814" style="stroke-width: 1;"/>
  <ellipse cx="45.856" cy="156.657" rx="7.767" ry="7.454" fill="#d6d6e3" style="stroke-width: 1;"/>
</svg>